<svg width="158" height="158" viewBox="0 0 158 158" fill="none" xmlns="http://www.w3.org/2000/svg">
<g filter="url(#filter0_d_454_250)">
<circle cx="79.03" cy="79.03" r="56.03" fill="black"/>
</g>
<path d="M41.0381 107.874C38.6559 107.874 36.8544 107.204 35.6335 105.864C34.4126 104.494 33.8021 102.543 33.8021 100.012V98.2256H38.4475V100.37C38.4475 102.394 39.2961 103.407 40.9935 103.407C41.8272 103.407 42.4526 103.169 42.8695 102.692C43.3161 102.186 43.5395 101.382 43.5395 100.28C43.5395 98.9701 43.2417 97.8236 42.6461 96.8409C42.0506 95.8285 40.9488 94.6225 39.3408 93.2229C37.3159 91.4363 35.9015 89.8283 35.0975 88.3989C34.2935 86.9398 33.8915 85.3021 33.8915 83.4856C33.8915 81.0141 34.5168 79.1083 35.7675 77.7683C37.0181 76.3985 38.8346 75.7136 41.2168 75.7136C43.5692 75.7136 45.341 76.3985 46.5321 77.7683C47.753 79.1083 48.3635 81.0438 48.3635 83.5749V84.8703H43.7181V83.2623C43.7181 82.1903 43.5097 81.416 43.0928 80.9396C42.6759 80.4334 42.0655 80.1803 41.2615 80.1803C39.6237 80.1803 38.8048 81.1778 38.8048 83.1729C38.8048 84.3045 39.1026 85.3616 39.6981 86.3443C40.3235 87.3269 41.4401 88.5181 43.0481 89.9176C45.1028 91.7043 46.5172 93.3272 47.2915 94.7863C48.0657 96.2454 48.4528 97.9576 48.4528 99.9229C48.4528 102.484 47.8126 104.449 46.5321 105.819C45.2815 107.189 43.4501 107.874 41.0381 107.874ZM51.2699 76.1603H56.1833V89.3369L62.4366 76.1603H67.3499L61.4986 87.6396L67.4393 107.427H62.3026L58.1486 93.4909L56.1833 97.4663V107.427H51.2699V76.1603ZM69.7647 76.1603H74.6781V107.427H69.7647V76.1603ZM78.3578 76.1603H83.2712V102.96H91.3558V107.427H78.3578V76.1603ZM93.712 76.1603H98.6253V102.96H106.71V107.427H93.712V76.1603ZM115.454 107.874C113.071 107.874 111.27 107.204 110.049 105.864C108.828 104.494 108.217 102.543 108.217 100.012V98.2256H112.863V100.37C112.863 102.394 113.711 103.407 115.409 103.407C116.243 103.407 116.868 103.169 117.285 102.692C117.732 102.186 117.955 101.382 117.955 100.28C117.955 98.9701 117.657 97.8236 117.062 96.8409C116.466 95.8285 115.364 94.6225 113.756 93.2229C111.731 91.4363 110.317 89.8283 109.513 88.3989C108.709 86.9398 108.307 85.3021 108.307 83.4856C108.307 81.0141 108.932 79.1083 110.183 77.7683C111.433 76.3985 113.25 75.7136 115.632 75.7136C117.985 75.7136 119.756 76.3985 120.948 77.7683C122.168 79.1083 122.779 81.0438 122.779 83.5749V84.8703H118.134V83.2623C118.134 82.1903 117.925 81.416 117.508 80.9396C117.091 80.4334 116.481 80.1803 115.677 80.1803C114.039 80.1803 113.22 81.1778 113.22 83.1729C113.22 84.3045 113.518 85.3616 114.114 86.3443C114.739 87.3269 115.856 88.5181 117.464 89.9176C119.518 91.7043 120.933 93.3272 121.707 94.7863C122.481 96.2454 122.868 97.9576 122.868 99.9229C122.868 102.484 122.228 104.449 120.948 105.819C119.697 107.189 117.866 107.874 115.454 107.874Z" fill="white"/>
<path d="M50.2228 48.9333H53.7291L55.2924 60.1223H55.3371L56.9004 48.9333H60.4068V64.5667H58.0841V52.73H58.0394L56.2528 64.5667H54.1981L52.4114 52.73H52.3668V64.5667H50.2228V48.9333ZM64.4957 57.9113L61.5254 48.9333H64.1384L65.8134 54.673H65.858L67.533 48.9333H69.9227L66.9524 57.9113V64.5667H64.4957V57.9113ZM76.5269 51.1666H73.9586V48.9333H81.5519V51.1666H78.9836V64.5667H76.5269V51.1666ZM82.7413 48.9333H89.4413V51.1666H85.198V55.2983H88.5703V57.5316H85.198V62.3333H89.4413V64.5667H82.7413V48.9333ZM94.3163 64.79C93.1401 64.79 92.2393 64.455 91.6139 63.785C91.0035 63.115 90.6983 62.1695 90.6983 60.9487V52.5513C90.6983 51.3304 91.0035 50.385 91.6139 49.715C92.2393 49.045 93.1401 48.71 94.3163 48.71C95.4925 48.71 96.3858 49.045 96.9963 49.715C97.6216 50.385 97.9343 51.3304 97.9343 52.5513V54.204H95.6116V52.395C95.6116 51.4272 95.2022 50.9433 94.3833 50.9433C93.5644 50.9433 93.1549 51.4272 93.1549 52.395V61.1273C93.1549 62.0802 93.5644 62.5567 94.3833 62.5567C95.2022 62.5567 95.6116 62.0802 95.6116 61.1273V58.7377H97.9343V60.9487C97.9343 62.1695 97.6216 63.115 96.9963 63.785C96.3858 64.455 95.4925 64.79 94.3163 64.79ZM99.4041 48.9333H101.861V55.2983H104.496V48.9333H106.953V64.5667H104.496V57.5316H101.861V64.5667H99.4041V48.9333Z" fill="white"/>
<defs>
<filter id="filter0_d_454_250" x="0.666666" y="0.666666" width="156.727" height="156.727" filterUnits="userSpaceOnUse" color-interpolation-filters="sRGB">
<feFlood flood-opacity="0" result="BackgroundImageFix"/>
<feColorMatrix in="SourceAlpha" type="matrix" values="0 0 0 0 0 0 0 0 0 0 0 0 0 0 0 0 0 0 127 0" result="hardAlpha"/>
<feOffset/>
<feGaussianBlur stdDeviation="11.1667"/>
<feComposite in2="hardAlpha" operator="out"/>
<feColorMatrix type="matrix" values="0 0 0 0 0.701067 0 0 0 0 0.213334 0 0 0 0 1 0 0 0 1 0"/>
<feBlend mode="normal" in2="BackgroundImageFix" result="effect1_dropShadow_454_250"/>
<feBlend mode="normal" in="SourceGraphic" in2="effect1_dropShadow_454_250" result="shape"/>
</filter>
</defs>
</svg>
