<svg width="150" height="150" viewBox="0 0 150 150" fill="none" xmlns="http://www.w3.org/2000/svg">
<g filter="url(#filter0_d_454_193)">
<circle cx="74.9699" cy="74.9699" r="56.03" fill="white"/>
</g>
<path d="M44.9347 101.74C42.9425 101.74 41.4359 101.18 40.4149 100.06C39.3939 98.9141 38.8834 97.283 38.8834 95.1663V93.6722H42.7682V95.4651C42.7682 97.1585 43.4779 98.0051 44.8973 98.0051C45.5946 98.0051 46.1175 97.8059 46.4661 97.4075C46.8397 96.9842 47.0264 96.3118 47.0264 95.3904C47.0264 94.2947 46.7774 93.336 46.2794 92.5142C45.7813 91.6675 44.86 90.659 43.5152 89.4886C41.8219 87.9945 40.639 86.6497 39.9667 85.4544C39.2943 84.2342 38.9581 82.8646 38.9581 81.3456C38.9581 79.2787 39.4811 77.6849 40.527 76.5643C41.5729 75.4188 43.0919 74.8461 45.0841 74.8461C47.0513 74.8461 48.533 75.4188 49.5291 76.5643C50.5501 77.6849 51.0606 79.3036 51.0606 81.4203V82.5035H47.1759V81.1588C47.1759 80.2623 47.0015 79.6149 46.6529 79.2164C46.3043 78.7931 45.7938 78.5814 45.1214 78.5814C43.7518 78.5814 43.067 79.4156 43.067 81.0841C43.067 82.0304 43.316 82.9144 43.8141 83.7362C44.337 84.5579 45.2708 85.554 46.6156 86.7244C48.3338 88.2186 49.5167 89.5757 50.1641 90.796C50.8116 92.0162 51.1353 93.448 51.1353 95.0916C51.1353 97.2332 50.5999 98.8767 49.5291 100.022C48.4832 101.168 46.9517 101.74 44.9347 101.74ZM53.4912 75.2196H57.6001V86.2388L62.8295 75.2196H66.9384L62.0451 84.8194L67.0131 101.367H62.7175L59.2436 89.7127L57.6001 93.0372V101.367H53.4912V75.2196ZM68.9578 75.2196H73.0667V101.367H68.9578V75.2196ZM76.1439 75.2196H80.2528V97.6316H87.0138V101.367H76.1439V75.2196ZM88.9842 75.2196H93.093V97.6316H99.854V101.367H88.9842V75.2196ZM107.166 101.74C105.174 101.74 103.667 101.18 102.646 100.06C101.625 98.9141 101.115 97.283 101.115 95.1663V93.6722H104.999V95.4651C104.999 97.1585 105.709 98.0051 107.129 98.0051C107.826 98.0051 108.349 97.8059 108.697 97.4075C109.071 96.9842 109.258 96.3118 109.258 95.3904C109.258 94.2947 109.009 93.336 108.511 92.5142C108.013 91.6675 107.091 90.659 105.746 89.4886C104.053 87.9945 102.87 86.6497 102.198 85.4544C101.526 84.2342 101.189 82.8646 101.189 81.3456C101.189 79.2787 101.712 77.6849 102.758 76.5643C103.804 75.4188 105.323 74.8461 107.315 74.8461C109.283 74.8461 110.764 75.4188 111.76 76.5643C112.781 77.6849 113.292 79.3036 113.292 81.4203V82.5035H109.407V81.1588C109.407 80.2623 109.233 79.6149 108.884 79.2164C108.536 78.7931 108.025 78.5814 107.353 78.5814C105.983 78.5814 105.298 79.4156 105.298 81.0841C105.298 82.0304 105.547 82.9144 106.045 83.7362C106.568 84.5579 107.502 85.554 108.847 86.7244C110.565 88.2186 111.748 89.5757 112.395 90.796C113.043 92.0162 113.367 93.448 113.367 95.0916C113.367 97.2332 112.831 98.8767 111.76 100.022C110.714 101.168 109.183 101.74 107.166 101.74Z" fill="black"/>
<path d="M51.0438 49.749H53.9761L55.2834 59.106H55.3208L56.6282 49.749H59.5604V62.8226H57.618V52.924H57.5807L56.0865 62.8226H54.3683L52.8742 52.924H52.8368V62.8226H51.0438V49.749ZM62.9798 57.257L60.4958 49.749H62.681L64.0818 54.5489H64.1191L65.5199 49.749H67.5183L65.0343 57.257V62.8226H62.9798V57.257ZM73.0412 51.6166H70.8933V49.749H77.2434V51.6166H75.0956V62.8226H73.0412V51.6166ZM78.2381 49.749H83.8411V51.6166H80.2925V55.0718H83.1127V56.9395H80.2925V60.955H83.8411V62.8226H78.2381V49.749ZM87.9179 63.0094C86.9342 63.0094 86.1809 62.7292 85.658 62.1689C85.1475 61.6086 84.8922 60.818 84.8922 59.797V52.7746C84.8922 51.7536 85.1475 50.9629 85.658 50.4026C86.1809 49.8423 86.9342 49.5622 87.9179 49.5622C88.9015 49.5622 89.6486 49.8423 90.1591 50.4026C90.682 50.9629 90.9435 51.7536 90.9435 52.7746V54.1567H89.0011V52.6438C89.0011 51.8345 88.6587 51.4299 87.9739 51.4299C87.2891 51.4299 86.9467 51.8345 86.9467 52.6438V59.9464C86.9467 60.7433 87.2891 61.1417 87.9739 61.1417C88.6587 61.1417 89.0011 60.7433 89.0011 59.9464V57.948H90.9435V59.797C90.9435 60.818 90.682 61.6086 90.1591 62.1689C89.6486 62.7292 88.9015 63.0094 87.9179 63.0094ZM92.1726 49.749H94.2271V55.0718H96.4309V49.749H98.4853V62.8226H96.4309V56.9395H94.2271V62.8226H92.1726V49.749Z" fill="black"/>
<defs>
<filter id="filter0_d_454_193" x="0.263277" y="0.263277" width="149.413" height="149.413" filterUnits="userSpaceOnUse" color-interpolation-filters="sRGB">
<feFlood flood-opacity="0" result="BackgroundImageFix"/>
<feColorMatrix in="SourceAlpha" type="matrix" values="0 0 0 0 0 0 0 0 0 0 0 0 0 0 0 0 0 0 127 0" result="hardAlpha"/>
<feOffset/>
<feGaussianBlur stdDeviation="9.33833"/>
<feComposite in2="hardAlpha" operator="out"/>
<feColorMatrix type="matrix" values="0 0 0 0 0 0 0 0 0 0 0 0 0 0 0 0 0 0 1 0"/>
<feBlend mode="normal" in2="BackgroundImageFix" result="effect1_dropShadow_454_193"/>
<feBlend mode="normal" in="SourceGraphic" in2="effect1_dropShadow_454_193" result="shape"/>
</filter>
</defs>
</svg>
