<svg width="115" height="25" viewBox="0 0 115 25" fill="none" xmlns="http://www.w3.org/2000/svg">
<path d="M46.5977 13.6241C47.6425 13.6241 48.6638 13.9339 49.5325 14.5144C50.4012 15.0948 51.0783 15.9198 51.4781 16.8851C51.8779 17.8503 51.9825 18.9124 51.7787 19.9371C51.5749 20.9618 51.0718 21.9031 50.333 22.6418C49.5942 23.3806 48.653 23.8837 47.6283 24.0875C46.6036 24.2914 45.5415 24.1868 44.5762 23.7869C43.611 23.3871 42.786 22.7101 42.2055 21.8414C41.6251 20.9727 41.3153 19.9513 41.3153 18.9066C41.3171 17.5061 41.8742 16.1635 42.8644 15.1733C43.8547 14.183 45.1973 13.6259 46.5977 13.6241ZM46.5977 23.0796C47.4227 23.0796 48.2292 22.835 48.9151 22.3766C49.6011 21.9183 50.1357 21.2669 50.4514 20.5047C50.7672 19.7425 50.8498 18.9038 50.6888 18.0947C50.5279 17.2855 50.1306 16.5423 49.5473 15.9589C48.964 15.3756 48.2207 14.9783 47.4116 14.8173C46.6025 14.6563 45.7638 14.7389 45.0016 15.0546C44.2394 15.3703 43.5879 15.9049 43.1296 16.5909C42.6712 17.2768 42.4265 18.0832 42.4265 18.9082C42.4263 19.4562 42.534 19.9988 42.7435 20.505C42.953 21.0113 43.2602 21.4714 43.6476 21.8589C44.035 22.2464 44.4949 22.5538 45.0011 22.7636C45.5073 22.9733 46.0498 23.0813 46.5977 23.0813V23.0796ZM45.2629 18.9082C45.2628 19.1722 45.3411 19.4303 45.4878 19.6499C45.6344 19.8694 45.8429 20.0405 46.0868 20.1416C46.3307 20.2426 46.5991 20.2691 46.8581 20.2176C47.117 20.1661 47.3549 20.039 47.5416 19.8523C47.7283 19.6656 47.8554 19.4278 47.907 19.1689C47.9585 18.9099 47.932 18.6415 47.831 18.3976C47.73 18.1537 47.5589 17.9452 47.3394 17.7985C47.1199 17.6518 46.8618 17.5735 46.5977 17.5735C46.2437 17.5735 45.9042 17.7141 45.6539 17.9644C45.4036 18.2147 45.2629 18.5542 45.2629 18.9082ZM85.1973 18.9082C85.1973 17.8635 85.5072 16.8422 86.0876 15.9735C86.6681 15.1048 87.4931 14.4278 88.4583 14.028C89.4236 13.6282 90.4857 13.5236 91.5104 13.7274C92.5351 13.9312 93.4763 14.4343 94.215 15.1731C94.9538 15.9119 95.4569 16.8531 95.6607 17.8778C95.8646 18.9025 95.76 19.9646 95.3602 20.9298C94.9604 21.8951 94.2833 22.7201 93.4147 23.3005C92.546 23.881 91.5247 24.1908 90.4799 24.1908C89.0794 24.1891 87.7368 23.632 86.7465 22.6417C85.7562 21.6514 85.1991 20.3087 85.1973 18.9082ZM90.4799 23.0796C91.3049 23.0796 92.1113 22.8349 92.7973 22.3766C93.4832 21.9182 94.0178 21.2668 94.3335 20.5046C94.6492 19.7424 94.7318 18.9037 94.5709 18.0946C94.4099 17.2854 94.0126 16.5422 93.4293 15.9589C92.8459 15.3755 92.1027 14.9783 91.2936 14.8173C90.4845 14.6563 89.6458 14.7389 88.8836 15.0546C88.1214 15.3703 87.4699 15.9049 87.0116 16.5909C86.5532 17.2768 86.3086 18.0833 86.3085 18.9082C86.3083 19.4562 86.416 19.9988 86.6256 20.5051C86.8351 21.0114 87.1423 21.4714 87.5297 21.859C87.9171 22.2465 88.377 22.5539 88.8832 22.7636C89.3894 22.9733 89.932 23.0813 90.4799 23.0813V23.0796ZM38.5272 19.7976C38.3966 18.6959 38.4932 17.5791 38.8109 16.5161C39.1287 15.4531 39.6609 14.4665 40.3747 13.6172C41.0885 12.7678 41.9688 12.0738 42.9612 11.5778C43.9537 11.0819 45.0372 10.7945 46.145 10.7335C47.2528 10.6725 48.3613 10.8392 49.4022 11.2232C50.443 11.6072 51.3942 12.2004 52.1969 12.9663C52.9997 13.7321 53.637 14.6543 54.0695 15.676C54.502 16.6977 54.7206 17.7971 54.7118 18.9066C54.713 20.1371 54.4328 21.3517 53.8926 22.4573H83.1851C82.6263 21.311 82.3454 20.0493 82.3651 18.7742C82.3849 17.4992 82.7046 16.2467 83.2986 15.1183C83.8925 13.9899 84.7439 13.0172 85.7837 12.2791C86.8236 11.541 88.0227 11.0582 89.2839 10.8698C90.5451 10.6815 91.8329 10.7928 93.0431 11.1949C94.2532 11.597 95.3517 12.2785 96.2494 13.1841C97.1471 14.0898 97.8189 15.1942 98.2103 16.4078C98.6017 17.6214 98.7017 18.9102 98.5022 20.1697C102.355 18.5511 104.843 15.9031 104.843 11.7152C104.843 7.37703 91.7781 1.27538 83.4687 0.988281V6.1157C83.4687 7.10607 83.0753 8.05588 82.375 8.75618C81.6747 9.45648 80.7249 9.8499 79.7345 9.8499H72.5884C71.7059 9.84857 70.8526 9.53405 70.1803 8.96235C69.5081 8.39065 69.0606 7.59889 68.9175 6.72809C68.9175 6.72809 69.1612 3.46943 69.9421 2.89042L69.4297 2.50843L65.7491 6.7314H51.5967C41.9726 6.72809 34.1589 10.2535 34.1589 14.5917C34.1589 16.594 35.8092 18.411 38.5272 19.7976ZM89.1451 18.9066C89.1451 19.1706 89.2233 19.4287 89.37 19.6482C89.5167 19.8677 89.7252 20.0388 89.9691 20.1398C90.213 20.2409 90.4814 20.2673 90.7403 20.2158C90.9993 20.1643 91.2371 20.0372 91.4238 19.8505C91.6105 19.6638 91.7376 19.4259 91.7891 19.167C91.8406 18.9081 91.8142 18.6397 91.7132 18.3957C91.6121 18.1518 91.4411 17.9433 91.2215 17.7967C91.002 17.65 90.7439 17.5717 90.4799 17.5717C90.3045 17.5717 90.1308 17.6063 89.9687 17.6735C89.8066 17.7407 89.6594 17.8391 89.5354 17.9633C89.4115 18.0874 89.3132 18.2347 89.2462 18.3969C89.1792 18.559 89.1448 18.7328 89.1451 18.9082V18.9066Z" fill="black"/>
<path d="M1.00077 12.0896L0.528772 12.5616L0.0581055 12.0896L0.528772 11.6176L1.00077 12.0896ZM1.47277 11.6176L6.80611 16.951L5.86211 17.895L0.528772 12.5616L1.47277 11.6176ZM0.528772 11.6176L5.86211 6.2843L6.80611 7.2283L1.47277 12.5616L0.528772 11.6176ZM1.00077 11.423H17.6674V12.7563H1.00077V11.423Z" fill="black"/>
</svg>
