<svg width="56" height="45" viewBox="0 0 56 45" fill="none" xmlns="http://www.w3.org/2000/svg">
<path d="M26.2384 23.9321C42.216 23.9427 49.0309 38.9739 50.6814 41.6164" stroke="white" stroke-opacity="0.9" stroke-width="0.551051" stroke-linecap="round" stroke-linejoin="round"/>
<path d="M54.1559 35.7356C51.9068 39.5866 50.7347 41.5613 50.6395 41.6599C50.4966 41.8078 47.2883 40.7103 44.7484 41.2977" stroke="white" stroke-opacity="0.9" stroke-width="0.551051" stroke-linecap="round" stroke-linejoin="round"/>
<path d="M7.84406 19.24C6.63073 19.24 5.5574 18.9533 4.62406 18.38C3.69073 17.7933 2.96406 16.9667 2.44406 15.9C1.92406 14.82 1.66406 13.54 1.66406 12.06C1.66406 10.6333 1.92406 9.37333 2.44406 8.28C2.9774 7.17333 3.72406 6.31333 4.68406 5.7C5.6574 5.07333 6.79073 4.76 8.08406 4.76C8.75073 4.76 9.3574 4.82667 9.90406 4.96C10.4507 5.08 10.9641 5.25333 11.4441 5.48L10.8641 7.08C10.4507 6.88 10.0241 6.72 9.58406 6.6C9.1574 6.48 8.65073 6.42 8.06406 6.42C7.21073 6.42 6.44406 6.64 5.76406 7.08C5.0974 7.52 4.57073 8.15333 4.18406 8.98C3.7974 9.80667 3.60406 10.8067 3.60406 11.98C3.60406 13.1 3.79073 14.08 4.16406 14.92C4.55073 15.76 5.0774 16.4133 5.74406 16.88C6.42406 17.3467 7.1974 17.58 8.06406 17.58C8.7174 17.58 9.28406 17.5 9.76406 17.34C10.2441 17.18 10.7107 16.9733 11.1641 16.72L11.7441 18.3C11.2507 18.5667 10.6841 18.7933 10.0441 18.98C9.4174 19.1533 8.68406 19.24 7.84406 19.24ZM16.9084 19.24C16.2951 19.24 15.7418 19.1267 15.2484 18.9C14.7551 18.66 14.3618 18.28 14.0684 17.76C13.7884 17.24 13.6484 16.5667 13.6484 15.74V4.2H15.4484V15.56C15.4484 16.28 15.5951 16.8133 15.8884 17.16C16.1951 17.5067 16.6151 17.68 17.1484 17.68C17.4018 17.68 17.6484 17.6533 17.8884 17.6C18.1418 17.5333 18.3551 17.46 18.5284 17.38L18.9684 18.84C18.7284 18.9467 18.4284 19.04 18.0684 19.12C17.7218 19.2 17.3351 19.24 16.9084 19.24ZM20.6625 19V8.6H22.4625V19H20.6625ZM21.5625 6.82C21.2158 6.82 20.9158 6.69333 20.6625 6.44C20.4225 6.18667 20.3025 5.89333 20.3025 5.56C20.3025 5.17333 20.4158 4.86667 20.6425 4.64C20.8692 4.41333 21.1758 4.3 21.5625 4.3C21.9092 4.3 22.2025 4.42667 22.4425 4.68C22.6958 4.92 22.8225 5.21333 22.8225 5.56C22.8225 5.93333 22.7092 6.24 22.4825 6.48C22.2558 6.70667 21.9492 6.82 21.5625 6.82ZM29.8625 19.24C28.8758 19.24 28.0092 19.0133 27.2625 18.56C26.5292 18.0933 25.9625 17.4533 25.5625 16.64C25.1625 15.8133 24.9625 14.8667 24.9625 13.8C24.9625 12.8 25.1625 11.8867 25.5625 11.06C25.9758 10.2333 26.5625 9.58 27.3225 9.1C28.0825 8.60667 28.9758 8.36 30.0025 8.36C30.5892 8.36 31.1025 8.41333 31.5425 8.52C31.9958 8.62667 32.4292 8.78 32.8425 8.98L32.3025 10.5C31.9292 10.3133 31.5692 10.18 31.2225 10.1C30.8892 10.0067 30.5158 9.96 30.1025 9.96C29.1692 9.96 28.3825 10.3 27.7425 10.98C27.1158 11.6467 26.8025 12.5733 26.8025 13.76C26.8025 14.48 26.9358 15.1333 27.2025 15.72C27.4692 16.3067 27.8358 16.7733 28.3025 17.12C28.7825 17.4667 29.3425 17.64 29.9825 17.64C30.4892 17.64 30.9225 17.5867 31.2825 17.48C31.6425 17.36 32.0292 17.1933 32.4425 16.98L33.0025 18.5C32.5892 18.7267 32.1225 18.9067 31.6025 19.04C31.0958 19.1733 30.5158 19.24 29.8625 19.24ZM42.2761 19.2L36.8961 13.66V19H35.0961V4.2H36.8961V12.66L41.5961 8.4L42.6361 9.54L38.6161 13.1L43.5161 18L42.2761 19.2ZM46.0909 14.86L45.8309 9.4V4.42H47.8309V9.4L47.5709 14.86H46.0909ZM46.8509 19.24C46.4909 19.24 46.1776 19.1067 45.9109 18.84C45.6443 18.5733 45.5109 18.26 45.5109 17.9C45.5109 17.4867 45.6309 17.16 45.8709 16.92C46.1109 16.68 46.4376 16.56 46.8509 16.56C47.1976 16.56 47.5043 16.6933 47.7709 16.96C48.0509 17.2267 48.1909 17.54 48.1909 17.9C48.1909 18.3 48.0643 18.6267 47.8109 18.88C47.5576 19.12 47.2376 19.24 46.8509 19.24Z" fill="white"/>
<path d="M4.62406 18.38L4.49101 18.5917L4.49321 18.593L4.62406 18.38ZM2.44406 15.9L2.21881 16.0085L2.21934 16.0095L2.44406 15.9ZM2.44406 8.28L2.21885 8.17146L2.2183 8.17262L2.44406 8.28ZM4.68406 5.7L4.81866 5.91067L4.8194 5.9102L4.68406 5.7ZM9.90406 4.96L9.84481 5.20294L9.85046 5.20419L9.90406 4.96ZM11.4441 5.48L11.6791 5.5652L11.7567 5.35115L11.5508 5.25394L11.4441 5.48ZM10.8641 7.08L10.7552 7.30504L11.0046 7.42575L11.0991 7.1652L10.8641 7.08ZM9.58406 6.6L9.51637 6.84067L9.51828 6.84119L9.58406 6.6ZM5.76406 7.08L5.62824 6.8701L5.62635 6.87135L5.76406 7.08ZM4.18406 8.98L3.95761 8.87408L3.95761 8.87408L4.18406 8.98ZM4.16406 14.92L3.93559 15.0215L3.93697 15.0245L4.16406 14.92ZM5.74406 16.88L5.60069 17.0848L5.6026 17.0861L5.74406 16.88ZM9.76406 17.34L9.68501 17.1028L9.68501 17.1028L9.76406 17.34ZM11.1641 16.72L11.3987 16.6338L11.2978 16.3589L11.0421 16.5018L11.1641 16.72ZM11.7441 18.3L11.8629 18.5199L12.0533 18.417L11.9787 18.2138L11.7441 18.3ZM10.0441 18.98L10.1107 19.221L10.1141 19.22L10.0441 18.98ZM7.84406 18.99C6.6718 18.99 5.64473 18.7136 4.75492 18.167L4.49321 18.593C5.47006 19.1931 6.58966 19.49 7.84406 19.49V18.99ZM4.75711 18.1683C3.86628 17.6084 3.16997 16.8185 2.66878 15.7904L2.21934 16.0095C2.75815 17.1148 3.51518 17.9783 4.49102 18.5917L4.75711 18.1683ZM2.66931 15.7915C2.16897 14.7524 1.91406 13.5111 1.91406 12.06H1.41406C1.41406 13.5689 1.67915 14.8876 2.21881 16.0085L2.66931 15.7915ZM1.91406 12.06C1.91406 10.6639 2.16838 9.44169 2.66983 8.38738L2.2183 8.17262C1.67974 9.30497 1.41406 10.6028 1.41406 12.06H1.91406ZM2.66927 8.38853C3.18411 7.32026 3.90082 6.49707 4.81866 5.91067L4.54946 5.48933C3.5473 6.1296 2.77069 7.02641 2.21885 8.17146L2.66927 8.38853ZM4.8194 5.9102C5.74775 5.31249 6.83291 5.01 8.08406 5.01V4.51C6.74855 4.51 5.56704 4.83417 4.54873 5.4898L4.8194 5.9102ZM8.08406 5.01C8.73433 5.01 9.32072 5.07505 9.84482 5.20288L9.9633 4.71712C9.39407 4.57828 8.76713 4.51 8.08406 4.51V5.01ZM9.85046 5.20419C10.3798 5.32038 10.8752 5.48784 11.3373 5.70606L11.5508 5.25394C11.0529 5.01883 10.5217 4.83962 9.95766 4.71581L9.85046 5.20419ZM11.209 5.3948L10.629 6.9948L11.0991 7.1652L11.6791 5.5652L11.209 5.3948ZM10.973 6.85496C10.5459 6.64831 10.1048 6.48288 9.64984 6.35881L9.51828 6.84119C9.94335 6.95712 10.3556 7.11169 10.7552 7.30504L10.973 6.85496ZM9.65175 6.35934C9.19726 6.23151 8.6667 6.17 8.06406 6.17V6.67C8.63476 6.67 9.11753 6.72849 9.51638 6.84066L9.65175 6.35934ZM8.06406 6.17C7.16525 6.17 6.35093 6.40249 5.62825 6.87011L5.89988 7.28989C6.5372 6.87751 7.25621 6.67 8.06406 6.67V6.17ZM5.62635 6.87135C4.91595 7.34021 4.36097 8.01172 3.95761 8.87408L4.41051 9.08592C4.78049 8.29494 5.27884 7.69979 5.90177 7.28865L5.62635 6.87135ZM3.95761 8.87408C3.55167 9.74196 3.35406 10.7801 3.35406 11.98H3.85406C3.85406 10.8332 4.04312 9.87138 4.41051 9.08592L3.95761 8.87408ZM3.35406 11.98C3.35406 13.1275 3.54532 14.1434 3.93561 15.0215L4.39252 14.8185C4.03614 14.0166 3.85406 13.0725 3.85406 11.98H3.35406ZM3.93697 15.0245C4.33959 15.8992 4.893 16.5894 5.6007 17.0848L5.88743 16.6752C5.2618 16.2372 4.76187 15.6208 4.39116 14.8155L3.93697 15.0245ZM5.6026 17.0861C6.32643 17.5829 7.14961 17.83 8.06406 17.83V17.33C7.24518 17.33 6.5217 17.1105 5.88552 16.6739L5.6026 17.0861ZM8.06406 17.83C8.73686 17.83 9.33144 17.7477 9.84312 17.5772L9.68501 17.1028C9.23668 17.2523 8.69793 17.33 8.06406 17.33V17.83ZM9.84312 17.5772C10.3384 17.4121 10.8194 17.199 11.286 16.9382L11.0421 16.5018C10.6021 16.7477 10.1498 16.9479 9.68501 17.1028L9.84312 17.5772ZM10.9294 16.8061L11.5094 18.3861L11.9787 18.2138L11.3987 16.6338L10.9294 16.8061ZM11.6252 18.0801C11.15 18.3369 10.6002 18.5574 9.97406 18.74L10.1141 19.22C10.7679 19.0293 11.3515 18.7964 11.8629 18.5199L11.6252 18.0801ZM9.97742 18.739C9.3777 18.9049 8.66773 18.99 7.84406 18.99V19.49C8.7004 19.49 9.45709 19.4017 10.1107 19.221L9.97742 18.739ZM15.2484 18.9L15.139 19.1249L15.1441 19.1272L15.2484 18.9ZM14.0684 17.76L13.8483 17.8785L13.8507 17.8828L14.0684 17.76ZM13.6484 4.2V3.95H13.3984V4.2H13.6484ZM15.4484 4.2H15.6984V3.95H15.4484V4.2ZM15.8884 17.16L15.6975 17.3215L15.7012 17.3256L15.8884 17.16ZM17.8884 17.6L17.9427 17.8442L17.9521 17.8418L17.8884 17.6ZM18.5284 17.38L18.7678 17.3079L18.6848 17.0325L18.4237 17.153L18.5284 17.38ZM18.9684 18.84L19.07 19.0685L19.2714 18.9789L19.2078 18.7679L18.9684 18.84ZM18.0684 19.12L18.0142 18.8759L18.0122 18.8764L18.0684 19.12ZM16.9084 18.99C16.3265 18.99 15.8094 18.8826 15.3528 18.6728L15.1441 19.1272C15.6741 19.3707 16.2638 19.49 16.9084 19.49V18.99ZM15.3578 18.6752C14.9142 18.4594 14.5569 18.1171 14.2862 17.6372L13.8507 17.8828C14.1667 18.4429 14.596 18.8606 15.1391 19.1248L15.3578 18.6752ZM14.2886 17.6415C14.0344 17.1695 13.8984 16.5409 13.8984 15.74H13.3984C13.3984 16.5924 13.5424 17.3105 13.8483 17.8785L14.2886 17.6415ZM13.8984 15.74V4.2H13.3984V15.74H13.8984ZM13.6484 4.45H15.4484V3.95H13.6484V4.45ZM15.1984 4.2V15.56H15.6984V4.2H15.1984ZM15.1984 15.56C15.1984 16.3065 15.3492 16.9098 15.6976 17.3215L16.0793 16.9985C15.841 16.7169 15.6984 16.2535 15.6984 15.56H15.1984ZM15.7012 17.3256C16.0628 17.7344 16.5555 17.93 17.1484 17.93V17.43C16.6747 17.43 16.3275 17.279 16.0757 16.9944L15.7012 17.3256ZM17.1484 17.93C17.4195 17.93 17.6843 17.9015 17.9427 17.844L17.8342 17.356C17.6125 17.4052 17.3841 17.43 17.1484 17.43V17.93ZM17.9521 17.8418C18.2147 17.7726 18.4428 17.6949 18.6332 17.607L18.4237 17.153C18.2674 17.2251 18.0688 17.294 17.8248 17.3582L17.9521 17.8418ZM18.2891 17.4521L18.7291 18.9121L19.2078 18.7679L18.7678 17.3079L18.2891 17.4521ZM18.8669 18.6115C18.6468 18.7094 18.3639 18.7982 18.0142 18.876L18.1227 19.364C18.493 19.2818 18.81 19.184 19.07 19.0685L18.8669 18.6115ZM18.0122 18.8764C17.6872 18.9514 17.3198 18.99 16.9084 18.99V19.49C17.3504 19.49 17.7563 19.4486 18.1247 19.3636L18.0122 18.8764ZM20.6625 19H20.4125V19.25H20.6625V19ZM20.6625 8.6V8.35H20.4125V8.6H20.6625ZM22.4625 8.6H22.7125V8.35H22.4625V8.6ZM22.4625 19V19.25H22.7125V19H22.4625ZM20.6625 6.44L20.4809 6.612L20.4857 6.61678L20.6625 6.44ZM20.6425 4.64L20.4657 4.46322L20.4657 4.46322L20.6425 4.64ZM22.4425 4.68L22.2607 4.85219L22.2706 4.86149L22.4425 4.68ZM22.4825 6.48L22.6593 6.65685L22.6643 6.65165L22.4825 6.48ZM20.9125 19V8.6H20.4125V19H20.9125ZM20.6625 8.85H22.4625V8.35H20.6625V8.85ZM22.2125 8.6V19H22.7125V8.6H22.2125ZM22.4625 18.75H20.6625V19.25H22.4625V18.75ZM21.5625 6.57C21.2846 6.57 21.0475 6.47142 20.8393 6.26322L20.4857 6.61678C20.7842 6.91524 21.1471 7.07 21.5625 7.07V6.57ZM20.844 6.26806C20.6457 6.05876 20.5525 5.82613 20.5525 5.56H20.0525C20.0525 5.96054 20.1993 6.31457 20.481 6.61194L20.844 6.26806ZM20.5525 5.56C20.5525 5.22502 20.6489 4.98715 20.8193 4.81678L20.4657 4.46322C20.1828 4.74618 20.0525 5.12164 20.0525 5.56H20.5525ZM20.8193 4.81678C20.9896 4.6464 21.2275 4.55 21.5625 4.55V4.05C21.1241 4.05 20.7487 4.18026 20.4657 4.46322L20.8193 4.81678ZM21.5625 4.55C21.84 4.55 22.0679 4.64806 22.261 4.85194L22.624 4.50806C22.3371 4.20527 21.9783 4.05 21.5625 4.05V4.55ZM22.2706 4.86149C22.4744 5.05463 22.5725 5.2825 22.5725 5.56H23.0725C23.0725 5.14417 22.9172 4.78537 22.6144 4.49851L22.2706 4.86149ZM22.5725 5.56C22.5725 5.87853 22.4778 6.12092 22.3007 6.30834L22.6643 6.65165C22.9406 6.35907 23.0725 5.98814 23.0725 5.56H22.5725ZM22.3057 6.30322C22.1353 6.47359 21.8975 6.57 21.5625 6.57V7.07C22.0009 7.07 22.3763 6.93974 22.6593 6.65678L22.3057 6.30322ZM27.2625 18.56L27.1282 18.771L27.1328 18.7737L27.2625 18.56ZM25.5625 16.64L25.3375 16.7489L25.3382 16.7503L25.5625 16.64ZM25.5625 11.06L25.3389 10.9482L25.3375 10.9511L25.5625 11.06ZM27.3225 9.1L27.456 9.31139L27.4586 9.30969L27.3225 9.1ZM31.5425 8.52L31.4836 8.76297L31.4852 8.76335L31.5425 8.52ZM32.8425 8.98L33.0781 9.06369L33.1531 8.85255L32.9514 8.75496L32.8425 8.98ZM32.3025 10.5L32.1907 10.7236L32.4435 10.85L32.5381 10.5837L32.3025 10.5ZM31.2225 10.1L31.155 10.341L31.1663 10.3436L31.2225 10.1ZM27.7425 10.98L27.5604 10.8087L27.5603 10.8088L27.7425 10.98ZM28.3025 17.12L28.1534 17.3207L28.1561 17.3227L28.3025 17.12ZM31.2825 17.48L31.3536 17.7198L31.3616 17.7172L31.2825 17.48ZM32.4425 16.98L32.6771 16.8936L32.5793 16.6281L32.3278 16.7578L32.4425 16.98ZM33.0025 18.5L33.1227 18.7192L33.3115 18.6157L33.2371 18.4136L33.0025 18.5ZM31.6025 19.04L31.5404 18.7978L31.5389 18.7982L31.6025 19.04ZM29.8625 18.99C28.9155 18.99 28.0949 18.7729 27.3922 18.3463L27.1328 18.7737C27.9234 19.2537 28.8361 19.49 29.8625 19.49V18.99ZM27.3967 18.3491C26.7038 17.9081 26.1675 17.3037 25.7868 16.5297L25.3382 16.7503C25.7575 17.603 26.3546 18.2785 27.1283 18.7709L27.3967 18.3491ZM25.7875 16.5311C25.4064 15.7435 25.2125 14.835 25.2125 13.8H24.7125C24.7125 14.8983 24.9186 15.8832 25.3375 16.7489L25.7875 16.5311ZM25.2125 13.8C25.2125 12.8343 25.4054 11.9587 25.7875 11.1689L25.3375 10.9511C24.9196 11.8147 24.7125 12.7657 24.7125 13.8H25.2125ZM25.7861 11.1718C26.1796 10.3847 26.7357 9.76631 27.456 9.31137L27.189 8.88863C26.3893 9.39369 25.772 10.082 25.3389 10.9482L25.7861 11.1718ZM27.4586 9.30969C28.1729 8.84605 29.0175 8.61 30.0025 8.61V8.11C28.9341 8.11 27.9921 8.36728 27.1864 8.8903L27.4586 9.30969ZM30.0025 8.61C30.5748 8.61 31.0676 8.66211 31.4836 8.76296L31.6014 8.27704C31.1374 8.16456 30.6035 8.11 30.0025 8.11V8.61ZM31.4852 8.76335C31.921 8.86588 32.337 9.01313 32.7336 9.20504L32.9514 8.75496C32.5213 8.54687 32.0707 8.38745 31.5998 8.27664L31.4852 8.76335ZM32.6069 8.89631L32.0669 10.4163L32.5381 10.5837L33.0781 9.06369L32.6069 8.89631ZM32.4143 10.2764C32.0263 10.0824 31.6476 9.94153 31.2787 9.8564L31.1663 10.3436C31.4907 10.4185 31.8321 10.5443 32.1907 10.7236L32.4143 10.2764ZM31.2899 9.85926C30.9309 9.75873 30.5343 9.71 30.1025 9.71V10.21C30.4973 10.21 30.8475 10.2546 31.1551 10.3407L31.2899 9.85926ZM30.1025 9.71C29.1002 9.71 28.2477 10.0785 27.5604 10.8087L27.9245 11.1513C28.5173 10.5215 29.2381 10.21 30.1025 10.21V9.71ZM27.5603 10.8088C26.8783 11.5343 26.5525 12.5292 26.5525 13.76H27.0525C27.0525 12.6174 27.3533 11.759 27.9247 11.1512L27.5603 10.8088ZM26.5525 13.76C26.5525 14.5115 26.6918 15.2007 26.9749 15.8234L27.4301 15.6165C27.1798 15.066 27.0525 14.4485 27.0525 13.76H26.5525ZM26.9749 15.8234C27.2571 16.4444 27.6492 16.9461 28.1534 17.3207L28.4516 16.9193C28.0225 16.6005 27.6812 16.1689 27.4301 15.6165L26.9749 15.8234ZM28.1561 17.3227C28.6822 17.7026 29.2944 17.89 29.9825 17.89V17.39C29.3906 17.39 28.8828 17.2307 28.4489 16.9173L28.1561 17.3227ZM29.9825 17.89C30.5054 17.89 30.964 17.8351 31.3535 17.7197L31.2115 17.2403C30.881 17.3382 30.4729 17.39 29.9825 17.39V17.89ZM31.3616 17.7172C31.7362 17.5923 32.1348 17.4201 32.5572 17.2022L32.3278 16.7578C31.9235 16.9665 31.5488 17.1277 31.2034 17.2428L31.3616 17.7172ZM32.2079 17.0664L32.7679 18.5864L33.2371 18.4136L32.6771 16.8936L32.2079 17.0664ZM32.8823 18.2808C32.4896 18.4961 32.0429 18.669 31.5404 18.7978L31.6646 19.2822C32.2021 19.1443 32.6887 18.9572 33.1227 18.7192L32.8823 18.2808ZM31.5389 18.7982C31.0573 18.9249 30.4994 18.99 29.8625 18.99V19.49C30.5323 19.49 31.1343 19.4217 31.6661 19.2818L31.5389 18.7982ZM42.2761 19.2L42.0967 19.3742L42.2706 19.5532L42.4499 19.3796L42.2761 19.2ZM36.8961 13.66L37.0754 13.4858L36.6461 13.0437V13.66H36.8961ZM36.8961 19V19.25H37.1461V19H36.8961ZM35.0961 19H34.8461V19.25H35.0961V19ZM35.0961 4.2V3.95H34.8461V4.2H35.0961ZM36.8961 4.2H37.1461V3.95H36.8961V4.2ZM36.8961 12.66H36.6461V13.224L37.064 12.8452L36.8961 12.66ZM41.5961 8.4L41.7808 8.23151L41.6128 8.04741L41.4282 8.21476L41.5961 8.4ZM42.6361 9.54L42.8018 9.72716L42.9918 9.55895L42.8208 9.37151L42.6361 9.54ZM38.6161 13.1L38.4503 12.9128L38.2515 13.0889L38.4393 13.2768L38.6161 13.1ZM43.5161 18L43.6899 18.1796L43.8726 18.0029L43.6929 17.8232L43.5161 18ZM42.4554 19.0258L37.0754 13.4858L36.7167 13.8342L42.0967 19.3742L42.4554 19.0258ZM36.6461 13.66V19H37.1461V13.66H36.6461ZM36.8961 18.75H35.0961V19.25H36.8961V18.75ZM35.3461 19V4.2H34.8461V19H35.3461ZM35.0961 4.45H36.8961V3.95H35.0961V4.45ZM36.6461 4.2V12.66H37.1461V4.2H36.6461ZM37.064 12.8452L41.764 8.58523L41.4282 8.21476L36.7282 12.4748L37.064 12.8452ZM41.4114 8.56849L42.4514 9.70849L42.8208 9.37151L41.7808 8.23151L41.4114 8.56849ZM42.4703 9.35284L38.4503 12.9128L38.7818 13.2872L42.8018 9.72716L42.4703 9.35284ZM38.4393 13.2768L43.3393 18.1768L43.6929 17.8232L38.7929 12.9232L38.4393 13.2768ZM43.3422 17.8203L42.1022 19.0203L42.4499 19.3796L43.6899 18.1796L43.3422 17.8203ZM46.0909 14.86L45.8412 14.8719L45.8526 15.11H46.0909V14.86ZM45.8309 9.4H45.5807L45.5812 9.41189L45.8309 9.4ZM45.8309 4.42V4.17H45.5809V4.42H45.8309ZM47.8309 4.42H48.0809V4.17H47.8309V4.42ZM47.8309 9.4L48.0809 9.4119V9.4H47.8309ZM47.5709 14.86V15.11H47.8093L47.8207 14.8719L47.5709 14.86ZM45.8709 16.92L46.0477 17.0968L46.0477 17.0968L45.8709 16.92ZM47.7709 16.96L47.5941 17.1368L47.5985 17.141L47.7709 16.96ZM47.8109 18.88L47.9829 19.0616L47.9877 19.0568L47.8109 18.88ZM46.3407 14.8481L46.0807 9.38811L45.5812 9.41189L45.8412 14.8719L46.3407 14.8481ZM46.0809 9.4V4.42H45.5809V9.4H46.0809ZM45.8309 4.67H47.8309V4.17H45.8309V4.67ZM47.5809 4.42V9.4H48.0809V4.42H47.5809ZM47.5812 9.38811L47.3212 14.8481L47.8207 14.8719L48.0807 9.41189L47.5812 9.38811ZM47.5709 14.61H46.0909V15.11H47.5709V14.61ZM46.8509 18.99C46.5607 18.99 46.31 18.8855 46.0877 18.6632L45.7342 19.0168C46.0452 19.3278 46.4212 19.49 46.8509 19.49V18.99ZM46.0877 18.6632C45.8654 18.441 45.7609 18.1903 45.7609 17.9H45.2609C45.2609 18.3297 45.4231 18.7057 45.7342 19.0168L46.0877 18.6632ZM45.7609 17.9C45.7609 17.5376 45.8645 17.28 46.0477 17.0968L45.6942 16.7432C45.3974 17.04 45.2609 17.4357 45.2609 17.9H45.7609ZM46.0477 17.0968C46.231 16.9135 46.4885 16.81 46.8509 16.81V16.31C46.3867 16.31 45.9909 16.4465 45.6942 16.7432L46.0477 17.0968ZM46.8509 16.81C47.1251 16.81 47.3698 16.9125 47.5942 17.1368L47.9477 16.7832C47.6387 16.4742 47.2701 16.31 46.8509 16.31V16.81ZM47.5985 17.141C47.8331 17.3644 47.9409 17.6139 47.9409 17.9H48.4409C48.4409 17.4661 48.2688 17.0889 47.9433 16.779L47.5985 17.141ZM47.9409 17.9C47.9409 18.2421 47.835 18.5024 47.6342 18.7032L47.9877 19.0568C48.2936 18.7509 48.4409 18.3579 48.4409 17.9H47.9409ZM47.639 18.6985C47.4373 18.8896 47.1811 18.99 46.8509 18.99V19.49C47.2941 19.49 47.6779 19.3504 47.9829 19.0615L47.639 18.6985Z" fill="white"/>
</svg>
